# xmcd
#
# Track frame offsets:
#   150
#   7490
#   21401
#   35102
#   46703
#   59090
#   71780
#   86038
#   96142
#   109540
#   123657
#
# Disc length: 1889 seconds
#
# Revision: 0
# Processed by: cddbd v1.5.1PL2 Copyright (c) Steve Scherf et al.
# Submitted via: GXTranscoder 2.0.1939
#
DISCID=a1075f0b
DTITLE=Johnny Cash - From Sea To Shining Sea
DYEAR=1900
DGENRE=Country
TTITLE0=From Sea To Shining Sea
TTITLE1=The Whirl And The Suck
TTITLE2=Call Daddy From The Mines
TTITLE3=The Frozen Four Hundred Pounds Fair
TTITLE4=Cisco Clifton's Fillin' Station
TTITLE5=The Masterpiece
TTITLE6=You And Tennessee
TTITLE7=Another Song To Sing
TTITLE8=The Flint Arrowhead
TTITLE9=Shrimpin Sailin
TTITLE10=The Walls Of A Prison
EXTD=
EXTT0=
EXTT1=
EXTT2=
EXTT3=
EXTT4=
EXTT5=
EXTT6=
EXTT7=
EXTT8=
EXTT9=
EXTT10=
PLAYORDER=
